<svg xmlns="http://www.w3.org/2000/svg" viewBox="0 0 80.71 131.71" width="10%" height="100%"><defs><style>.cls-1{fill:#7c7f6c;}</style></defs><title>rightleaf</title><g id="Layer_2" data-name="Layer 2"><g id="Layer_1-2" data-name="Layer 1"><path class="cls-1" d="M40.23.65a43.32,43.32,0,0,1,5.33,2.76c6.39,4,9,8.45,8.8,14.85,0,1.57-.08,1.68-.44,2.06-.71.75-1.7.81-3.83.25-3.91-1-7.31-4.45-9.23-9.31-1-2.45-2-6.39-1.83-7a11.24,11.24,0,0,0-.27-2.17,18.44,18.44,0,0,1-.31-2C38.48-.08,39.12.15,40.23.65Z"/><path class="cls-1" d="M61.92,6a33.75,33.75,0,0,1,3.79,10.4,32,32,0,0,1-.27,7.68,14.3,14.3,0,0,1-2.55,5.15,3.28,3.28,0,0,1-1.6,1c-1.29,0-3.13-2-4.07-4.47a17.52,17.52,0,0,1-1-4.31c0-.41-.08-1.29-.14-1.94-.22-2.59.56-6.24,2.15-10a55.89,55.89,0,0,1,2.67-5.31A18.13,18.13,0,0,1,61.92,6Z"/><path class="cls-1" d="M44.13,18.61a32.61,32.61,0,0,1,6.39,2.71c4.19,2.38,6.88,5.33,7.93,8.77.55,1.78.95,5.38.6,5.38,0,0-.12.15-.14.36,0,.58-.3.9-1,1.19a3.18,3.18,0,0,1-2,.19,6.32,6.32,0,0,1-1.74-.31c-.56-.28-.42-.15,1.1,1,5.24,4,8,7.77,8.68,12a28.93,28.93,0,0,1-.18,7.25,1.81,1.81,0,0,1-1.7.9,6,6,0,0,1-2.88-1c-2.92-1.44-4.13-2.6-5.44-5.16-.49-1-1-2.21-1.24-2.74a25.68,25.68,0,0,1-1.14-5.26c0-.55-.16-1.91-.27-3S51,38.25,51,37.48a12.61,12.61,0,0,0-.08-1.67,4,4,0,0,0-1.06-1c-2.42-1.71-4.51-4.58-6.14-8.44-1-2.46-1.52-4-1.45-4.7a5.81,5.81,0,0,0-.4-2.23c-.27-.89-.47-1.63-.47-1.64S41.93,17.87,44.13,18.61Z"/><path class="cls-1" d="M54.54,18.9c0,.19,0,.26-.07.17a.69.69,0,0,1,0-.35C54.51,18.63,54.54,18.7,54.54,18.9Z"/><path class="cls-1" d="M71.53,24.9a32.08,32.08,0,0,1,1.62,9.73c0,4.41-.23,6.13-1.18,8.39-1.15,2.77-3.84,5.66-5.3,5.67-.89,0-1.9-1.16-2.61-3A10.61,10.61,0,0,1,63.27,42c.06-.24,0-.31-.08-.23s-.13,0-.07-.05a6.64,6.64,0,0,0-.06-1.59q-.56-5.31,3.66-11.72c.91-1.37,2.68-3.73,3.82-5.08l.39-.46Z"/><path class="cls-1" d="M78.29,45.57c-.07,1.14-.12,2.51-.11,3s0,.89-.11.77-.1,0,0,.26a24.36,24.36,0,0,1-1,5.65,16.54,16.54,0,0,1-4.65,8.19c-1.89,1.74-4.1,2.9-5.55,2.91-.64,0-.81-.06-1.14-.4A3.33,3.33,0,0,1,65,63.64c.05-.21,0-.35,0-.29s-.17-.25-.21-3a10.64,10.64,0,0,1,.21-2.92c1.17-4.83,4.48-8.48,11.57-12.74l1.79-1.08A7.47,7.47,0,0,1,78.29,45.57Z"/><path class="cls-1" d="M53.26,52.63c4.53,4.69,7.07,8.94,7.78,13,.23,1.25.25,5.36.05,5-.06-.09-.07.06,0,.34a11.2,11.2,0,0,1-.46,3.32,3,3,0,0,1-.82,1.38c-.6.6-.62.6-1.44.55a3.09,3.09,0,0,1-1.77-.69A15.84,15.84,0,0,1,52.9,72a13.58,13.58,0,0,1-2.17-6.44c0-.23,0-.38,0-.34-.22.14-.28-6.42-.06-7.92.27-1.91,1.08-6,1.16-6A14.57,14.57,0,0,1,53.26,52.63Z"/><path class="cls-1" d="M80.67,63.61A14.84,14.84,0,0,1,80,65c-.43.88-.52,1.14-.38,1.29.42.51-.26,2.18-2,4.89a27.47,27.47,0,0,1-3.11,4.12c-1.43,1.62-4.22,3.7-5.22,3.93s-.29.19,1.38,0c2.38-.29,7.13-.46,7-.25s-.37.67-.76,1.3c-.71,1.12-.82,1.35-.59,1.21.07-.06.17.1.22.33.13.57-.36,1.59-1.53,3.13-3.07,4.08-5.88,6.55-9,7.86l-1.47.65a.93.93,0,0,1-.59.14c-.08-.06-.15,0-.15,0a13.09,13.09,0,0,0,2.49.53l2.5.42-1,1.07c-.6.67-.9,1.09-.77,1.09.31,0,.44.62.21,1.15-.36.91-3.53,3.73-6.11,5.46-3.12,2.09-7,3.33-9.59,3.09l-.92-.08,1.53.53,2.72,1c.65.24,1.26.47,1.38.5s-.24.38-.88.85c-1.05.77-1.21.92-.89.85.08,0,.22.14.29.35.31.81-.36,1.52-2.83,3a28.48,28.48,0,0,1-8.21,3.47,17.5,17.5,0,0,1-6,0c-2.14-.49-4.3-1.58-4.9-2.45-.36-.53-.47-1.53-.17-1.53.1,0-.1-.24-.44-.55l-.62-.53.56-.75a13.91,13.91,0,0,1,8.63-5.57,25.1,25.1,0,0,1,5.14-.08c1.06.08,1.2.08.9-.07a1.92,1.92,0,0,1-.94-1.68c0-.48,0-.57-.35-.74s-.38-.27-.38-.35a6.69,6.69,0,0,1,.43-1,13.54,13.54,0,0,1,10.57-7.74c1.46-.25,2.06-.43,1.43-.43a1.05,1.05,0,0,1-.58-.34c-.4-.43-.74-1.36-.54-1.49s0-.14-.16-.19c-.37-.11-.37-.28.13-1.76a13.67,13.67,0,0,1,7.7-8.7c.71-.34,1.13-.58.93-.53a7.79,7.79,0,0,1-2.66-.08,2.6,2.6,0,0,1-.85-.42c-.39-.29-.75-1.39-.47-1.4.08,0,0-.07-.18-.14s-.32-.18-.25-.93A15.61,15.61,0,0,1,62,73.09c2.43-5.23,7.13-8,16.08-9.37,1-.15,2-.3,2.27-.36C80.74,63.29,80.76,63.31,80.67,63.61Zm-33.3,42a.3.3,0,0,0,.27,0c.11,0,.07-.09-.09-.09S47.32,105.53,47.37,105.57Z"/><path class="cls-1" d="M49.42,69.39C53,74,55.15,78.3,55.75,82a35,35,0,0,1-.08,7.52,7.67,7.67,0,0,1-1.87,3.51c-.61.64-.78.73-1.23.73-.77,0-1.41-.36-2.48-1.36a13.7,13.7,0,0,1-3.51-5.28A9.12,9.12,0,0,1,46,83.9c.07-.23.05-.27-.07-.2s-.15.06-.08,0A8,8,0,0,0,45.8,82a28.31,28.31,0,0,1,1.13-9.42c.36-1.22,1.4-4.52,1.43-4.52S48.85,68.65,49.42,69.39Z"/><path class="cls-1" d="M41.79,80.12a39.83,39.83,0,0,1,3.48,9.09A17.53,17.53,0,0,1,45.58,94c0,3.12,0,3.43-.38,4.71a12,12,0,0,1-2,4.3c-1.52,2-2.48,2.21-3.82.86a13.87,13.87,0,0,1-2.07-3.05A11.74,11.74,0,0,1,36.14,97c0-.39-.06-.64-.1-.57S36,96.34,36,96s0-1.49,0-2.56a13.77,13.77,0,0,1,.25-3.39,36.09,36.09,0,0,1,3.88-9.81c.49-.89.9-1.63.91-1.63S41.35,79.29,41.79,80.12Z"/><path class="cls-1" d="M33.12,90.55a35.93,35.93,0,0,1,.44,8.33c-.08,1.07-.19,2.1-.22,2.29s-.05.31.06.07c.21-.42.18-.12-.13,1.56a15.19,15.19,0,0,1-1.43,4.57A11.89,11.89,0,0,1,29,111.2a7.45,7.45,0,0,1-3.36,2.18c-1.06.14-1.92-1-2.55-3.45a14.8,14.8,0,0,1-.33-2c0-.47-.08-1.49-.14-2.27-.28-3.63,1.1-7.31,4.19-11.19a77.37,77.37,0,0,1,5.89-6A10.28,10.28,0,0,1,33.12,90.55Z"/><path class="cls-1" d="M21.26,101c0,.08-.32.79-.64,1.59-.62,1.54-.64,1.61-.43,1.49s.19.25.13.9a13.52,13.52,0,0,1-.91,2.23c-3.6,7.43-7.87,11.19-13.49,11.82a5,5,0,0,1-2.41-.16,1.59,1.59,0,0,1-1-1.4c0-.25-.07-.38-.21-.38s-.21-.11-.16-.46.12-.82.16-1.28C3,109,7.1,104.75,15,102.36,17.21,101.67,21.33,100.75,21.26,101Z"/><path class="cls-1" d="M27,113.77c.11,0,.68.13,1.25.21a22.31,22.31,0,0,1,7.24,2.92,45.57,45.57,0,0,1,5.62,4,2.61,2.61,0,0,1-.9.46c-.49.2-.81.37-.73.39.25.09.38.94.2,1.28-.47.88-5.17,2.19-9.16,2.55-4.83.45-9-.89-11.9-3.85-1.09-1.1-1.45-1.91-1.1-2.57.09-.18,0-.4-.42-.94a4.93,4.93,0,0,1-.54-.84,14.9,14.9,0,0,1,2.78-2,13.94,13.94,0,0,1,6.33-1.7Z"/><path class="cls-1" d="M10.86,119.81A22.5,22.5,0,0,1,19.49,124a56.84,56.84,0,0,1,4.73,4,2.51,2.51,0,0,1-.9.35c-.8.21-.88.26-.7.44a1,1,0,0,1-.12,1.37c-.42.41-1.33.68-3.85,1.14a22.3,22.3,0,0,1-5,.37,15.47,15.47,0,0,1-4.27-.29,13.81,13.81,0,0,1-6.61-3.49c-1.42-1.35-1.92-2.15-1.92-3,0-.46,0-.63.16-.56s.17.1-.54-1A4.81,4.81,0,0,1,0,122.5c0-.38,3.31-2,5-2.53A14.57,14.57,0,0,1,10.86,119.81Z"/></g></g></svg>