<svg xmlns="http://www.w3.org/2000/svg" viewBox="0 0 80.71 131.71" width="10%" height="100%"><defs><style>.cls-1{fill:#7c7f6c;}</style></defs><title>leftleaf</title><g id="Layer_2" data-name="Layer 2"><g id="Layer_1-2" data-name="Layer 1"><path class="cls-1" d="M40.48.65a44.07,44.07,0,0,0-5.33,2.76c-6.39,4-9,8.45-8.8,14.85.06,1.57.08,1.68.45,2.06.71.75,1.69.81,3.82.25,3.92-1,7.31-4.45,9.23-9.31,1-2.45,2-6.39,1.83-7A11.62,11.62,0,0,1,42,2.07a17.27,17.27,0,0,0,.3-2C42.23-.08,41.59.15,40.48.65Z"/><path class="cls-1" d="M18.79,6A33.75,33.75,0,0,0,15,16.38a32,32,0,0,0,.27,7.68,14.3,14.3,0,0,0,2.55,5.15,3.28,3.28,0,0,0,1.6,1c1.29,0,3.13-2,4.08-4.47a17,17,0,0,0,1-4.31c0-.41.08-1.29.14-1.94.22-2.59-.56-6.24-2.14-10a57.91,57.91,0,0,0-2.68-5.31A18.13,18.13,0,0,0,18.79,6Z"/><path class="cls-1" d="M36.58,18.61a32.61,32.61,0,0,0-6.39,2.71c-4.19,2.38-6.87,5.33-7.93,8.77-.55,1.78-1,5.38-.6,5.38.05,0,.12.15.14.36,0,.58.3.9,1,1.19a3.21,3.21,0,0,0,2,.19,6.49,6.49,0,0,0,1.74-.31c.55-.28.41-.15-1.1,1-5.25,4-8,7.77-8.69,12a28.93,28.93,0,0,0,.18,7.25,1.81,1.81,0,0,0,1.7.9,6,6,0,0,0,2.88-1c2.92-1.44,4.13-2.6,5.44-5.16.49-1,1.05-2.21,1.24-2.74a25.68,25.68,0,0,0,1.14-5.26c0-.55.16-1.91.27-3s.22-2.64.22-3.41a12.61,12.61,0,0,1,.08-1.67,4.18,4.18,0,0,1,1.06-1c2.42-1.71,4.51-4.58,6.14-8.44,1.05-2.46,1.52-4,1.45-4.7a6,6,0,0,1,.4-2.23c.27-.89.48-1.63.48-1.64S38.78,17.87,36.58,18.61Z"/><path class="cls-1" d="M26.17,18.9c0,.19,0,.26.07.17a.69.69,0,0,0,0-.35C26.2,18.63,26.17,18.7,26.17,18.9Z"/><path class="cls-1" d="M9.19,24.9a31.82,31.82,0,0,0-1.63,9.73c0,4.41.23,6.13,1.18,8.39,1.16,2.77,3.84,5.66,5.3,5.67.9,0,1.9-1.16,2.61-3A10.61,10.61,0,0,0,17.44,42c-.05-.24,0-.31.08-.23s.13,0,.07-.05a7.28,7.28,0,0,1,.06-1.59C18,36.63,16.8,32.72,14,28.45c-.91-1.37-2.67-3.73-3.82-5.08l-.39-.46Z"/><path class="cls-1" d="M2.42,45.57c.07,1.14.13,2.51.11,3s0,.89.11.77.1,0,0,.26a24.36,24.36,0,0,0,1,5.65,16.54,16.54,0,0,0,4.65,8.19c1.89,1.74,4.11,2.9,5.55,2.91.64,0,.81-.06,1.14-.4a3.34,3.34,0,0,0,.76-2.33c-.06-.21,0-.35,0-.29s.17-.25.21-3a10.25,10.25,0,0,0-.21-2.92c-1.16-4.83-4.48-8.48-11.56-12.74l-1.8-1.08A7.47,7.47,0,0,0,2.42,45.57Z"/><path class="cls-1" d="M27.45,52.63c-4.52,4.69-7.07,8.94-7.78,13-.22,1.25-.25,5.36,0,5,.05-.09.07.06,0,.34a11.2,11.2,0,0,0,.46,3.32,2.92,2.92,0,0,0,.83,1.38c.59.6.61.6,1.43.55a3.09,3.09,0,0,0,1.77-.69A15.84,15.84,0,0,0,27.81,72a13.59,13.59,0,0,0,1.06-2A14.49,14.49,0,0,0,30,65.51c0-.23,0-.38,0-.34.22.14.28-6.42.06-7.92-.27-1.91-1.07-6-1.16-6A15.9,15.9,0,0,0,27.45,52.63Z"/><path class="cls-1" d="M0,63.61c.06.18.35.81.65,1.41.44.88.52,1.14.38,1.29-.42.51.26,2.18,2,4.89a26.75,26.75,0,0,0,3.1,4.12c1.44,1.62,4.22,3.7,5.22,3.93s.29.19-1.38,0c-2.38-.29-7.12-.46-7-.25s.38.67.77,1.3c.71,1.12.82,1.35.58,1.21-.07-.06-.17.1-.22.33-.13.57.36,1.59,1.53,3.13,3.07,4.08,5.89,6.55,9,7.86l1.48.65a.89.89,0,0,0,.58.14c.09-.06.15,0,.15,0a13.09,13.09,0,0,1-2.49.53l-2.5.42,1,1.07c.6.67.91,1.09.77,1.09-.31,0-.43.62-.21,1.15.36.91,3.53,3.73,6.11,5.46,3.12,2.09,7,3.33,9.59,3.09l.92-.08-1.53.53-2.72,1c-.65.24-1.26.47-1.37.5s.23.38.87.85c1.05.77,1.21.92.89.85-.08,0-.22.14-.29.35-.3.81.36,1.52,2.83,3a28.48,28.48,0,0,0,8.21,3.47,17.5,17.5,0,0,0,6,0c2.15-.49,4.3-1.58,4.9-2.45.36-.53.48-1.53.17-1.53-.1,0,.1-.24.45-.55l.61-.53-.56-.75a13.88,13.88,0,0,0-8.63-5.57,25.1,25.1,0,0,0-5.14-.08c-1.05.08-1.19.08-.9-.07a1.9,1.9,0,0,0,.94-1.68c0-.48,0-.57.35-.74s.38-.27.38-.35a6.69,6.69,0,0,0-.43-1,13.54,13.54,0,0,0-10.57-7.74c-1.46-.25-2.06-.43-1.43-.43a1.05,1.05,0,0,0,.58-.34c.41-.43.74-1.36.54-1.49s0-.14.16-.19c.37-.11.37-.28-.13-1.76a13.62,13.62,0,0,0-7.7-8.7c-.71-.34-1.12-.58-.93-.53a7.79,7.79,0,0,0,2.66-.08,2.6,2.6,0,0,0,.85-.42c.39-.29.75-1.39.47-1.4-.08,0,0-.07.18-.14s.32-.18.25-.93a15.27,15.27,0,0,0-1.21-4.31c-2.43-5.23-7.12-8-16.08-9.37-1-.15-2-.3-2.26-.36C0,63.29,0,63.31,0,63.61Zm33.3,42a.3.3,0,0,1-.27,0c-.11,0-.07-.09.09-.09S33.39,105.53,33.34,105.57Z"/><path class="cls-1" d="M31.29,69.39C27.7,74,25.56,78.3,25,82A35,35,0,0,0,25,89.55a7.77,7.77,0,0,0,1.87,3.51c.61.64.78.73,1.24.73.76,0,1.4-.36,2.47-1.36a13.48,13.48,0,0,0,3.51-5.28,8.9,8.9,0,0,0,.57-3.25c-.07-.23-.05-.27.07-.2s.16.06.09,0a7,7,0,0,1,0-1.67,28.31,28.31,0,0,0-1.13-9.42c-.36-1.22-1.4-4.52-1.43-4.52S31.86,68.65,31.29,69.39Z"/><path class="cls-1" d="M38.92,80.12a40.3,40.3,0,0,0-3.48,9.09A17.53,17.53,0,0,0,35.13,94c0,3.12,0,3.43.38,4.71a12.14,12.14,0,0,0,2,4.3c1.52,2,2.48,2.21,3.82.86a13.87,13.87,0,0,0,2.07-3.05A11.74,11.74,0,0,0,44.57,97c0-.39.06-.64.1-.57s.08-.13.08-.46,0-1.49,0-2.56a13.77,13.77,0,0,0-.25-3.39,36.09,36.09,0,0,0-3.88-9.81c-.49-.89-.89-1.63-.91-1.63S39.37,79.29,38.92,80.12Z"/><path class="cls-1" d="M47.59,90.55a35.93,35.93,0,0,0-.44,8.33c.08,1.07.19,2.1.22,2.29s.06.31,0,.07c-.21-.42-.19-.12.12,1.56a15.19,15.19,0,0,0,1.43,4.57,11.89,11.89,0,0,0,2.84,3.83,7.45,7.45,0,0,0,3.36,2.18c1.06.14,1.92-1,2.55-3.45a14.8,14.8,0,0,0,.33-2c0-.47.08-1.49.14-2.27.28-3.63-1.1-7.31-4.19-11.19a75.59,75.59,0,0,0-5.89-6A11.19,11.19,0,0,0,47.59,90.55Z"/><path class="cls-1" d="M59.45,101c0,.08.32.79.64,1.59.62,1.54.65,1.61.44,1.49s-.2.25-.14.9a13,13,0,0,0,.92,2.23c3.59,7.43,7.86,11.19,13.49,11.82a4.94,4.94,0,0,0,2.4-.16,1.6,1.6,0,0,0,1-1.4c0-.25.07-.38.2-.38s.21-.11.16-.46-.11-.82-.16-1.28c-.66-6.33-4.8-10.55-12.66-12.94C63.51,101.67,59.39,100.75,59.45,101Z"/><path class="cls-1" d="M53.71,113.77c-.12,0-.69.13-1.26.21a22.39,22.39,0,0,0-7.24,2.92,46.4,46.4,0,0,0-5.62,4,2.61,2.61,0,0,0,.9.46c.49.2.81.37.73.39-.25.09-.38.94-.2,1.28.48.88,5.17,2.19,9.16,2.55,4.83.45,9-.89,11.91-3.85,1.08-1.1,1.44-1.91,1.1-2.57-.1-.18,0-.4.41-.94a4.62,4.62,0,0,0,.55-.84,14.72,14.72,0,0,0-2.79-2,13.91,13.91,0,0,0-6.33-1.7Z"/><path class="cls-1" d="M69.85,119.81A22.5,22.5,0,0,0,61.22,124a56.84,56.84,0,0,0-4.73,4,2.51,2.51,0,0,0,.9.35c.8.21.88.26.7.44a1,1,0,0,0,.13,1.37c.41.41,1.32.68,3.84,1.14a22.36,22.36,0,0,0,5,.37,15.47,15.47,0,0,0,4.27-.29A13.84,13.84,0,0,0,78,127.93c1.42-1.35,1.92-2.15,1.92-3,0-.46,0-.63-.17-.56s-.17.1.54-1a4.81,4.81,0,0,0,.46-.85c0-.38-3.31-2-5-2.53A14.57,14.57,0,0,0,69.85,119.81Z"/></g></g></svg>