<svg width="102" height="921" viewBox="0 0 102 921" fill="none" xmlns="http://www.w3.org/2000/svg">
<g opacity="0.5">
<path d="M98.4468 63.8497L40.1639 47.8086L40.1639 47.4941L98.4468 31.1385L98.4468 0L2.41595 29.8804L2.41594 64.1642L98.4468 95.6173L98.4468 63.8497Z" fill="#E0EAEE" fill-opacity="0.1"/>
<path d="M98.4468 128.329L98.4468 97.5046L2.41595 97.5046L2.41595 128.329L98.4468 128.329Z" fill="#E0EAEE" fill-opacity="0.1"/>
<path d="M2.41583 730.34L2.41583 814.634L27.1785 814.634L27.1785 761.164L39.2579 761.164L39.2579 808.344L61.9066 808.344L61.9066 761.164L73.986 761.164L73.986 813.062L98.7487 813.062L98.7487 730.34L2.41583 730.34ZM2.41583 665.547L2.41583 696.371L73.986 696.371L73.986 724.364L98.7487 724.364L98.7487 637.553L73.986 637.553L73.986 665.547L2.41583 665.547ZM34.7281 546.654C3.92576 546.969 0.301952 579.365 0.301952 590.688C0.301951 613.02 8.45551 636.924 33.5202 636.924C51.0352 636.924 57.3769 622.771 61.3027 608.617C64.9265 594.463 66.4364 580.309 73.382 579.68C78.8177 579.68 79.7237 586.6 79.7237 590.688C79.7237 593.834 79.1197 597.294 77.3078 599.81C75.7979 602.326 73.382 603.899 69.7582 603.584L69.7582 632.836C93.011 631.892 101.165 612.706 101.165 591.003C101.165 570.559 91.5011 550.743 69.4562 550.743C50.1293 550.743 45.9015 568.671 41.6737 584.712C36.842 602.012 35.6341 606.415 30.5003 606.415C23.2527 606.415 21.7428 598.866 21.7428 593.519C21.7428 587.858 22.9507 580.938 28.6884 578.736C30.5003 578.107 32.6142 577.478 35.0301 577.478L34.7281 546.654ZM98.4467 540.364L98.4467 509.54L46.2035 509.54C36.238 509.54 24.1587 509.54 24.1587 495.071C24.1587 479.974 36.54 479.974 46.2035 479.974L98.4467 479.974L98.4467 449.15L39.5598 449.15C12.9853 449.15 0.301957 464.247 0.301956 494.757C0.301955 525.266 12.9853 540.364 39.5598 540.364L98.4467 540.364ZM75.4959 380.268L75.4959 396.623C75.4959 402.914 73.684 407.003 68.8523 407.003C62.8126 407.003 61.0007 402.914 61.0007 396.623L61.0007 380.268L75.4959 380.268ZM2.41585 349.444L2.41584 406.059C2.41584 423.673 12.3813 440.972 31.7083 440.972C45.9015 440.972 52.5452 432.48 55.565 423.673C59.4908 431.221 64.6245 435.939 74.288 435.939C84.2534 435.939 98.4467 430.278 98.4467 403.857L98.4467 349.129L2.41585 349.444ZM43.1837 380.268L43.1837 399.454C43.1837 406.688 40.1638 410.148 34.4261 410.148C27.1785 410.148 25.3666 404.486 25.3666 398.196L25.3666 380.268L43.1837 380.268ZM50.4313 269.553C71.8721 269.553 76.7039 281.505 76.7039 289.368C76.7039 297.231 71.8721 309.184 50.4313 309.184C28.9904 309.184 24.1587 297.231 24.1587 289.368C24.1587 281.505 28.9904 269.553 50.4313 269.553ZM50.4313 238.729C21.1389 238.729 -1.27851e-05 259.173 -1.4105e-05 289.368C-1.54386e-05 319.878 20.8369 340.008 50.4313 340.008C80.0257 340.008 100.863 319.563 100.863 289.368C100.863 258.859 79.7237 238.729 50.4313 238.729ZM75.4959 172.048L75.4959 186.517C75.4959 198.154 71.8721 201.929 65.8324 201.929C57.3769 201.929 56.169 194.065 56.169 188.404L56.169 172.363L75.4959 172.048ZM2.41586 141.224L2.41585 172.048L35.9361 172.048L35.9361 188.404C35.9361 200.671 26.2726 201.3 17.2131 202.243C12.3813 202.558 7.24759 203.187 2.41585 204.759L2.41585 235.583C6.94561 232.753 18.421 232.753 22.9507 232.124C35.0301 230.866 43.7876 225.833 46.8075 217.341C50.4313 227.72 61.0007 232.438 70.9662 232.438C89.0852 232.438 98.4467 217.341 98.4467 199.727L98.4467 141.224L2.41586 141.224Z" fill="#E0EAEE" fill-opacity="0.1"/>
<path d="M75.496 856.781L75.496 871.25C75.496 882.887 71.8722 886.662 65.8325 886.662C57.377 886.662 56.169 878.798 56.169 873.137L56.169 857.096L75.496 857.096L75.496 856.781ZM2.41595 825.957L2.41595 856.781L35.9361 856.781L35.9361 873.137C35.9361 885.404 26.2727 886.033 17.2131 886.976C12.3814 887.291 7.24769 887.92 2.41594 889.492L2.41594 920.316C6.9457 917.486 18.4211 917.486 22.9508 916.857C35.0302 915.598 43.7877 910.566 46.8076 902.074C50.4314 912.453 61.0008 917.171 70.9663 917.171C89.0853 917.171 98.4468 902.074 98.4468 884.46L98.4468 825.643L2.41595 825.643L2.41595 825.957Z" fill="#E0EAEE" fill-opacity="0.1"/>
</g>
</svg>
