<?xml version="1.0" encoding="utf-8"?>
<!-- Generator: Adobe Illustrator 23.1.0, SVG Export Plug-In . SVG Version: 6.00 Build 0)  -->
<svg version="1.1" id="Layer_1" xmlns="http://www.w3.org/2000/svg" xmlns:xlink="http://www.w3.org/1999/xlink" x="0px" y="0px"
	 viewBox="0 0 1222 322.3" style="enable-background:new 0 0 1222 322.3;" xml:space="preserve">
<style type="text/css">
	.st0{fill:#2164A0;}
	.st1{fill:none;}
</style>
<g>
	<g>
		<polygon class="st0" points="210.8,110.7 194.6,171.9 194.3,171.9 177.8,110.7 146.4,110.7 176.5,211.7 211.3,211.7 242.8,110.7 
					"/>
		<rect x="244.7" y="110.7" class="st0" width="31.1" height="101"/>
		<path class="st0" d="M883.5,211.7h85.1v-25.9h-54v-12.6h47.7v-24h-47.7v-12.6h52.5v-25.9h-83.6V211.7z M818.2,211.7h31.1v-75.1
			h28.3v-25.9h-87.7v25.9h28.3V211.7z M698.3,177.7c0.3,32.2,32.9,36.3,44.4,36.3c22.5,0,46.7-8.5,46.7-34.8
			c0-18.5-14.1-25.2-28.4-29.1c-14.3-4-28.7-5.5-29.3-12.7c0-5.7,6.9-6.8,11.2-6.8c3.1,0,6.6,0.7,9.2,2.5c2.5,1.7,4.2,4.2,3.7,8.1
			h29.4c-0.9-24.6-20.2-32.9-42.1-32.9c-20.8,0-40.7,10-40.7,33.4c0,20.4,18.2,24.7,34.2,29.3c17.4,5,21.8,6.4,21.8,11.6
			c0,7.5-7.8,9.2-12.9,9.2c-5.8,0-12.6-1.3-14.8-7.4c-0.7-1.8-1.1-4.1-1.1-6.6H698.3z M691.8,110.7h-31.1v55
			c0,10.3,0,23.2-14.7,23.2c-15.1,0-15.1-12.9-15.1-23.2v-55h-31.1v61.9c0,28,15.3,41.4,46.1,41.4c30.8,0,46-13.4,46-41.4V110.7z
			 M530.3,134.7h16.4c6.4,0,10.6,1.8,10.6,6.9c0,6.5-4.1,8.3-10.6,8.3h-16.4V134.7z M499.2,211.7h57.3c17.8,0,35.4-10.5,35.4-30.7
			c0-14.9-8.5-22.1-17.5-25.2c7.5-4.1,12.4-9.6,12.4-19.8c0-10.3-5.7-25.3-32.2-25.3h-55.3V211.7z M530.3,168.8h19.5
			c7.4,0,10.9,3.3,10.9,9.2c0,7.8-5.7,9.6-12.2,9.6h-18.2V168.8z M418.4,161.2c0-22.5,12.2-27.7,20.1-27.7c7.9,0,20.1,5.2,20.1,27.7
			c0,22.5-12.2,27.7-20.1,27.7C430.5,188.9,418.4,183.7,418.4,161.2 M387.2,161.2c0,30.8,20.5,52.9,51.2,52.9
			c30.7,0,51.2-22.1,51.2-52.9c0-30.8-20.5-52.9-51.2-52.9C407.7,108.3,387.2,130.3,387.2,161.2 M320.2,134.7h14.6
			c11.9,0,15.4,3.7,15.4,10c0,9-7.9,10-13.7,10h-16.3V134.7z M289.1,211.7h31.1v-35.2h16.5c12.3,0,13.2,10,14,19.7
			c0.4,5.2,1,10.5,2.5,15.6h31.1c-2.8-4.7-3-16.7-3.4-21.6c-1.1-12.6-6.4-21.9-14.9-25.2c10.3-3.8,15.1-14.8,15.1-25.3
			c0-19.1-15.3-28.8-32.9-28.8h-59.2V211.7z"/>
	</g>
	<path class="st0" d="M1011.5,134.7h14.6c11.9,0,15.4,3.7,15.4,10c0,9-7.9,10-13.7,10h-16.3V134.7z M980.3,211.7h31.1v-35.2h16.5
		c12.3,0,13.2,10,14,19.7c0.4,5.2,1,10.5,2.5,15.6h31.1c-2.8-4.7-3-16.7-3.4-21.6c-1.1-12.6-6.4-21.9-14.9-25.2
		c10.3-3.8,15.1-14.8,15.1-25.3c0-19.1-15.3-28.8-32.9-28.8h-59.2V211.7z"/>
</g>
<rect class="st1" width="1222" height="322.3"/>
</svg>
